<svg width="40" height="40" viewBox="0 0 40 40" fill="none" xmlns="http://www.w3.org/2000/svg">
<g id="line 1" clip-path="url(#clip0_4009_535)">
<g id="Layer 1">
<path id="Vector" d="M8.18615 0H31.8128C36.3151 0 39.9989 3.68382 39.9989 8.18615V31.8128C39.9989 36.3151 36.3151 40 31.8128 40H8.18615C3.68382 40 0 36.3162 0 31.8128V8.18615C0 3.68382 3.68382 0 8.18615 0Z" fill="white"/>
<path id="Vector_2" d="M19.9619 6.62695C28.0665 6.62695 34.6368 11.8885 34.6368 18.3783C34.6368 20.6454 33.8342 22.7621 32.446 24.5569C32.3772 24.6596 32.2872 24.7718 32.1739 24.8968L32.1654 24.9063C31.6911 25.4738 31.1574 26.0065 30.5697 26.4988C26.511 30.2504 19.8317 34.7157 18.9496 34.0264C18.183 33.427 20.2118 30.4982 17.8717 30.0111C17.7086 29.9921 17.5456 29.9719 17.3846 29.9497H17.3814C10.5072 28.9724 5.28699 24.164 5.28699 18.3794C5.28699 11.8896 11.8573 6.62801 19.9619 6.62801V6.62695Z" fill="#D7A99F"/>
<path id="Vector_3" d="M11.4465 22.1257H14.406C14.8275 22.1257 15.1716 21.7816 15.1716 21.3602V21.2966C15.1716 20.8752 14.8275 20.5311 14.406 20.5311H12.2756V15.6835C12.2756 15.2621 11.9314 14.918 11.51 14.918H11.4465C11.025 14.918 10.6809 15.2621 10.6809 15.6835V21.3602C10.6809 21.7816 11.025 22.1257 11.4465 22.1257ZM29.7862 18.5679V18.5044C29.7862 18.0829 29.442 17.7388 29.0206 17.7388H26.8901V16.5275H29.0206C29.442 16.5275 29.7862 16.1833 29.7862 15.7619V15.6984C29.7862 15.2769 29.442 14.9328 29.0206 14.9328H26.061C25.6396 14.9328 25.2955 15.2769 25.2955 15.6984V21.375C25.2955 21.7964 25.6396 22.1405 26.061 22.1405H29.0206C29.442 22.1405 29.7862 21.7964 29.7862 21.375V21.3114C29.7862 20.89 29.442 20.5459 29.0206 20.5459H26.8901V19.3345H29.0206C29.442 19.3345 29.7862 18.9904 29.7862 18.569V18.5679ZM24.0947 21.8981C24.2313 21.7593 24.316 21.5698 24.316 21.3612V15.6846C24.316 15.2632 23.9719 14.919 23.5505 14.919H23.4869C23.0655 14.919 22.7214 15.2632 22.7214 15.6846V19.0169L19.9545 15.3066C19.8222 15.0757 19.5733 14.919 19.2895 14.919H19.226C18.8046 14.919 18.4605 15.2632 18.4605 15.6846V21.3612C18.4605 21.7826 18.8046 22.1268 19.226 22.1268H19.2895C19.711 22.1268 20.0551 21.7826 20.0551 21.3612V17.9665L22.841 21.7721C22.858 21.7985 22.877 21.8239 22.8971 21.8483C22.9734 21.9531 23.0782 22.0241 23.1947 22.0685C23.2847 22.1056 23.3821 22.1257 23.4848 22.1257H23.5483C23.6775 22.1257 23.7993 22.0929 23.9062 22.0368C23.9825 22.0008 24.0471 21.9531 24.0926 21.8981H24.0947ZM16.5545 22.1268H16.618C17.0394 22.1268 17.3836 21.7826 17.3836 21.3612V15.6846C17.3836 15.2632 17.0394 14.919 16.618 14.919H16.5545C16.133 14.919 15.7889 15.2632 15.7889 15.6846V21.3612C15.7889 21.7826 16.133 22.1268 16.5545 22.1268Z" fill="white"/>
</g>
</g>
<defs>
<clipPath id="clip0_4009_535">
<rect width="40" height="40" fill="white"/>
</clipPath>
</defs>
</svg>
