<svg width="46" height="46" viewBox="0 0 46 46" fill="none" xmlns="http://www.w3.org/2000/svg">
<g id="Layer 1">
<g id="Group">
<path id="Vector" d="M9.41407 0H36.5847C41.7624 0 45.9988 4.23639 45.9988 9.41407V36.5847C45.9988 41.7624 41.7624 46 36.5847 46H9.41407C4.23639 46 0 41.7636 0 36.5847V9.41407C0 4.23639 4.23639 0 9.41407 0Z" fill="white"/>
<path id="Vector_2" d="M22.9561 7.62109C32.2764 7.62109 39.8323 13.6719 39.8323 21.1352C39.8323 23.7423 38.9093 26.1765 37.3129 28.2405C37.2337 28.3586 37.1302 28.4877 36.9999 28.6314L36.9902 28.6423C36.4446 29.295 35.8309 29.9075 35.1551 30.4738C30.4876 34.7881 22.8063 39.9231 21.792 39.1304C20.9104 38.4412 23.2435 35.073 20.5524 34.5129C20.3648 34.491 20.1773 34.4678 19.9922 34.4422H19.9886C12.0832 33.3183 6.07996 27.7887 6.07996 21.1364C6.07996 13.6731 13.6358 7.62231 22.9561 7.62231V7.62109Z" fill="#C698A5"/>
<path id="Vector_3" d="M13.1634 25.4452H16.5668C17.0515 25.4452 17.4472 25.0494 17.4472 24.5648V24.4917C17.4472 24.0071 17.0515 23.6113 16.5668 23.6113H14.1168V18.0366C14.1168 17.552 13.7211 17.1562 13.2364 17.1562H13.1634C12.6787 17.1562 12.283 17.552 12.283 18.0366V24.5648C12.283 25.0494 12.6787 25.4452 13.1634 25.4452ZM34.254 21.3537V21.2806C34.254 20.796 33.8582 20.4002 33.3736 20.4002H30.9236V19.0072H33.3736C33.8582 19.0072 34.254 18.6114 34.254 18.1268V18.0537C34.254 17.5691 33.8582 17.1733 33.3736 17.1733H29.9701C29.4855 17.1733 29.0897 17.5691 29.0897 18.0537V24.5818C29.0897 25.0665 29.4855 25.4622 29.9701 25.4622H33.3736C33.8582 25.4622 34.254 25.0665 34.254 24.5818V24.5087C34.254 24.0241 33.8582 23.6283 33.3736 23.6283H30.9236V22.2353H33.3736C33.8582 22.2353 34.254 21.8395 34.254 21.3549V21.3537ZM27.7088 25.1834C27.8659 25.0238 27.9633 24.8059 27.9633 24.566V18.0379C27.9633 17.5532 27.5676 17.1575 27.0829 17.1575H27.0099C26.5252 17.1575 26.1295 17.5532 26.1295 18.0379V21.87L22.9476 17.6031C22.7954 17.3377 22.5092 17.1575 22.1829 17.1575H22.1098C21.6252 17.1575 21.2294 17.5532 21.2294 18.0379V24.566C21.2294 25.0506 21.6252 25.4464 22.1098 25.4464H22.1829C22.6675 25.4464 23.0633 25.0506 23.0633 24.566V20.662L26.2671 25.0384C26.2866 25.0689 26.3085 25.0981 26.3316 25.1261C26.4193 25.2467 26.5398 25.3283 26.6738 25.3794C26.7773 25.422 26.8893 25.4452 27.0074 25.4452H27.0805C27.2291 25.4452 27.3691 25.4074 27.4921 25.3429C27.5798 25.3015 27.654 25.2467 27.7064 25.1834H27.7088ZM19.0376 25.4464H19.1106C19.5953 25.4464 19.991 25.0506 19.991 24.566V18.0379C19.991 17.5532 19.5953 17.1575 19.1106 17.1575H19.0376C18.5529 17.1575 18.1572 17.5532 18.1572 18.0379V24.566C18.1572 25.0506 18.5529 25.4464 19.0376 25.4464Z" fill="white"/>
</g>
</g>
</svg>
