<svg width="80" height="80" viewBox="0 0 80 80" fill="none" xmlns="http://www.w3.org/2000/svg">
<g id="qr 1">
<g id="Ebene 1">
<g id="Group">
<path id="Vector" d="M28.12 3.19953C28.5 3.19953 28.8 2.89953 28.8 2.51953V3.19953H28.12Z" fill="#636262"/>
<path id="Vector_2" d="M32 2.52V0.68C32 0.3 31.7 0 31.32 0H29.48C29.1 0 28.8 0.3 28.8 0.68V3.2H32V2.52Z" fill="#636262"/>
<path id="Vector_3" d="M50.52 0H48.68C48.3 0 48 0.3 48 0.68V2.52C48 2.9 48.3 3.2 48.68 3.2H51.2V0H50.52Z" fill="#636262"/>
<path id="Vector_4" d="M51.88 3.2H53.72C54.1 3.2 54.4 2.9 54.4 2.52V0.68C54.4 0.3 54.1 0 53.72 0H51.2V3.2H51.88Z" fill="#636262"/>
<path id="Vector_5" d="M28.12 3.19922H26.28C25.9 3.19922 25.6 3.49922 25.6 3.87922V5.71922C25.6 6.09922 25.9 6.39922 26.28 6.39922H28.8V3.19922H28.12Z" fill="#636262"/>
<path id="Vector_6" d="M32 3.19922H28.8V6.39922H32V3.19922Z" fill="#636262"/>
<path id="Vector_7" d="M34.52 6.4007C34.9 6.4007 35.2 6.1007 35.2 5.7207V6.4007H34.52Z" fill="#636262"/>
<path id="Vector_8" d="M32.68 6.4007C32.3 6.4007 32 6.1007 32 5.7207V6.4007H32.68Z" fill="#636262"/>
<path id="Vector_9" d="M35.88 3.19922C35.5 3.19922 35.2 3.49922 35.2 3.87922V6.39922H38.4V3.19922H35.88Z" fill="#636262"/>
<path id="Vector_10" d="M41.6 3.19922H38.4V6.39922H41.6V3.19922Z" fill="#636262"/>
<path id="Vector_11" d="M44.8 3.19922H41.6V6.39922H44.8V3.19922Z" fill="#636262"/>
<path id="Vector_12" d="M45.48 6.39922H47.32C47.7 6.39922 48 6.09922 48 5.71922V3.87922C48 3.49922 47.7 3.19922 47.32 3.19922H44.8V6.39922H45.48Z" fill="#636262"/>
<path id="Vector_13" d="M28.8 7.08039V6.40039H28.12C28.5 6.40039 28.8 6.70039 28.8 7.08039Z" fill="#636262"/>
<path id="Vector_14" d="M28.12 9.59992C28.5 9.59992 28.8 9.29992 28.8 8.91992V9.59992H28.12Z" fill="#636262"/>
<path id="Vector_15" d="M32 6.40039H28.8V9.60039H32V6.40039Z" fill="#636262"/>
<path id="Vector_16" d="M35.2 6.40039H32V9.60039H35.2V6.40039Z" fill="#636262"/>
<path id="Vector_17" d="M38.4 6.40039H35.2V9.60039H38.4V6.40039Z" fill="#636262"/>
<path id="Vector_18" d="M39.08 6.40039H38.4V7.08039C38.4 6.70039 38.7 6.40039 39.08 6.40039Z" fill="#636262"/>
<path id="Vector_19" d="M50.52 9.59992C50.9 9.59992 51.2 9.29992 51.2 8.91992V9.59992H50.52Z" fill="#636262"/>
<path id="Vector_20" d="M54.4 8.92039V7.08039C54.4 6.70039 54.1 6.40039 53.72 6.40039H51.88C51.5 6.40039 51.2 6.70039 51.2 7.08039V9.60039H54.4V8.92039Z" fill="#636262"/>
<path id="Vector_21" d="M28.12 9.59961H26.28C25.9 9.59961 25.6 9.89961 25.6 10.2796V12.1196C25.6 12.4996 25.9 12.7996 26.28 12.7996H28.8V9.59961H28.12Z" fill="#636262"/>
<path id="Vector_22" d="M32 12.1196C32 12.4996 31.7 12.7996 31.32 12.7996H28.8V9.59961H32V12.1196Z" fill="#636262"/>
<path id="Vector_23" d="M32.68 9.59961H32V10.2796C32 9.89961 32.3 9.59961 32.68 9.59961Z" fill="#636262"/>
<path id="Vector_24" d="M35.2 10.2796V9.59961H34.52C34.9 9.59961 35.2 9.89961 35.2 10.2796Z" fill="#636262"/>
<path id="Vector_25" d="M35.2 12.1196C35.2 12.4996 35.5 12.7996 35.88 12.7996H37.72C38.1 12.7996 38.4 12.4996 38.4 12.1196V9.59961H35.2V12.1196Z" fill="#636262"/>
<path id="Vector_26" d="M45.48 9.59961C45.1 9.59961 44.8 9.89961 44.8 10.2796V12.7996H48V9.59961H45.48Z" fill="#636262"/>
<path id="Vector_27" d="M51.2 9.59961H48V12.7996H51.2V9.59961Z" fill="#636262"/>
<path id="Vector_28" d="M54.4 9.59961H51.2V12.7996H54.4V9.59961Z" fill="#636262"/>
<path id="Vector_29" d="M35.2 15.3208V13.4808C35.2 13.1008 34.9 12.8008 34.52 12.8008H32.68C32.3 12.8008 32 13.1008 32 13.4808V16.0008H35.2V15.3208Z" fill="#636262"/>
<path id="Vector_30" d="M40.92 12.8008H39.08C38.7045 12.8008 38.4 13.1052 38.4 13.4808V15.3208C38.4 15.6963 38.7045 16.0008 39.08 16.0008H40.92C41.2956 16.0008 41.6 15.6963 41.6 15.3208V13.4808C41.6 13.1052 41.2956 12.8008 40.92 12.8008Z" fill="#636262"/>
<path id="Vector_31" d="M44.8 15.3208C44.8 15.7008 45.1 16.0008 45.48 16.0008H47.32C47.7 16.0008 48 15.7008 48 15.3208V12.8008H44.8V15.3208Z" fill="#636262"/>
<path id="Vector_32" d="M48.68 12.8008H48V13.4808C48 13.1008 48.3 12.8008 48.68 12.8008Z" fill="#636262"/>
<path id="Vector_33" d="M51.2 13.4808V12.8008H50.52C50.9 12.8008 51.2 13.1008 51.2 13.4808Z" fill="#636262"/>
<path id="Vector_34" d="M51.2 15.3208C51.2 15.7008 51.5 16.0008 51.88 16.0008H53.72C54.1 16.0008 54.4 15.7008 54.4 15.3208V12.8008H51.2V15.3208Z" fill="#636262"/>
<path id="Vector_35" d="M28.8 18.52V16.68C28.8 16.3 28.5 16 28.12 16H26.28C25.9 16 25.6 16.3 25.6 16.68V19.2H28.8V18.52Z" fill="#636262"/>
<path id="Vector_36" d="M35.2 16H32V19.2H35.2V16Z" fill="#636262"/>
<path id="Vector_37" d="M44.12 16H42.28C41.9044 16 41.6 16.3044 41.6 16.68V18.52C41.6 18.8956 41.9044 19.2 42.28 19.2H44.12C44.4955 19.2 44.8 18.8956 44.8 18.52V16.68C44.8 16.3044 44.4955 16 44.12 16Z" fill="#636262"/>
<path id="Vector_38" d="M50.52 16H48.68C48.3044 16 48 16.3044 48 16.68V18.52C48 18.8956 48.3044 19.2 48.68 19.2H50.52C50.8956 19.2 51.2 18.8956 51.2 18.52V16.68C51.2 16.3044 50.8956 16 50.52 16Z" fill="#636262"/>
<path id="Vector_39" d="M25.6 21.7192C25.6 22.0992 25.9 22.3992 26.28 22.3992H28.12C28.5 22.3992 28.8 22.0992 28.8 21.7192V19.1992H25.6V21.7192Z" fill="#636262"/>
<path id="Vector_40" d="M32 21.7192C32 22.0992 32.3 22.3992 32.68 22.3992H34.52C34.9 22.3992 35.2 22.0992 35.2 21.7192V19.1992H32V21.7192Z" fill="#636262"/>
<path id="Vector_41" d="M41.6 21.7192V19.8792C41.6 19.4992 41.3 19.1992 40.92 19.1992H39.08C38.7 19.1992 38.4 19.4992 38.4 19.8792V22.3992H41.6V21.7192Z" fill="#636262"/>
<path id="Vector_42" d="M42.28 22.4007C41.9 22.4007 41.6 22.1007 41.6 21.7207V22.4007H42.28Z" fill="#636262"/>
<path id="Vector_43" d="M47.32 19.1992H45.48C45.1044 19.1992 44.8 19.5037 44.8 19.8792V21.7192C44.8 22.0948 45.1044 22.3992 45.48 22.3992H47.32C47.6955 22.3992 48 22.0948 48 21.7192V19.8792C48 19.5037 47.6955 19.1992 47.32 19.1992Z" fill="#636262"/>
<path id="Vector_44" d="M54.4 21.7192V19.8792C54.4 19.4992 54.1 19.1992 53.72 19.1992H51.88C51.5 19.1992 51.2 19.4992 51.2 19.8792V22.3992H54.4V21.7192Z" fill="#636262"/>
<path id="Vector_45" d="M41.6 22.4004H38.4V25.6004H41.6V22.4004Z" fill="#636262"/>
<path id="Vector_46" d="M44.12 22.4004C44.5 22.4004 44.8 22.7004 44.8 23.0804V25.6004H41.6V22.4004H44.12Z" fill="#636262"/>
<path id="Vector_47" d="M45.48 25.5999C45.1 25.5999 44.8 25.2999 44.8 24.9199V25.5999H45.48Z" fill="#636262"/>
<path id="Vector_48" d="M50.52 25.5999C50.9 25.5999 51.2 25.2999 51.2 24.9199V25.5999H50.52Z" fill="#636262"/>
<path id="Vector_49" d="M54.4 22.4004H51.2V25.6004H54.4V22.4004Z" fill="#636262"/>
<path id="Vector_50" d="M55.08 25.5999C54.7 25.5999 54.4 25.2999 54.4 24.9199V25.5999H55.08Z" fill="#636262"/>
<path id="Vector_51" d="M0.68 25.5996C0.3 25.5996 0 25.8996 0 26.2796V28.7996H3.2V25.5996H0.68Z" fill="#636262"/>
<path id="Vector_52" d="M6.40001 25.5996H3.20001V28.7996H6.40001V25.5996Z" fill="#636262"/>
<path id="Vector_53" d="M9.60002 25.5996H6.40002V28.7996H9.60002V25.5996Z" fill="#636262"/>
<path id="Vector_54" d="M12.8 25.5996H9.59998V28.7996H12.8V25.5996Z" fill="#636262"/>
<path id="Vector_55" d="M15.32 25.5996C15.7 25.5996 16 25.8996 16 26.2796V28.7996H12.8V25.5996H15.32Z" fill="#636262"/>
<path id="Vector_56" d="M16.68 28.7991C16.3 28.7991 16 28.4991 16 28.1191V28.7991H16.68Z" fill="#636262"/>
<path id="Vector_57" d="M21.72 25.5996H19.88C19.5 25.5996 19.2 25.8996 19.2 26.2796V28.1196C19.2 28.4996 19.5 28.7996 19.88 28.7996H22.4V25.5996H21.72Z" fill="#636262"/>
<path id="Vector_58" d="M25.6 25.5996H22.4V28.7996H25.6V25.5996Z" fill="#636262"/>
<path id="Vector_59" d="M28.8 25.5996H25.6V28.7996H28.8V25.5996Z" fill="#636262"/>
<path id="Vector_60" d="M32 25.5996H28.8V28.7996H32V25.5996Z" fill="#636262"/>
<path id="Vector_61" d="M32.68 28.7996H34.52C34.9 28.7996 35.2 28.4996 35.2 28.1196V26.2796C35.2 25.8996 34.9 25.5996 34.52 25.5996H32V28.7996H32.68Z" fill="#636262"/>
<path id="Vector_62" d="M38.4 28.1196C38.4 28.4996 38.7 28.7996 39.08 28.7996H41.6V25.5996H38.4V28.1196Z" fill="#636262"/>
<path id="Vector_63" d="M44.8 25.5996H41.6V28.7996H44.8V25.5996Z" fill="#636262"/>
<path id="Vector_64" d="M48 25.5996H44.8V28.7996H48V25.5996Z" fill="#636262"/>
<path id="Vector_65" d="M51.2 25.5996H48V28.7996H51.2V25.5996Z" fill="#636262"/>
<path id="Vector_66" d="M54.4 25.5996H51.2V28.7996H54.4V25.5996Z" fill="#636262"/>
<path id="Vector_67" d="M56.92 25.5996C57.3 25.5996 57.6 25.8996 57.6 26.2796V28.7996H54.4V25.5996H56.92Z" fill="#636262"/>
<path id="Vector_68" d="M64 28.1196V26.2796C64 25.8996 63.7 25.5996 63.32 25.5996H61.48C61.1 25.5996 60.8 25.8996 60.8 26.2796V28.7996H64V28.1196Z" fill="#636262"/>
<path id="Vector_69" d="M69.72 25.5996H67.88C67.5045 25.5996 67.2 25.9041 67.2 26.2796V28.1196C67.2 28.4952 67.5045 28.7996 67.88 28.7996H69.72C70.0956 28.7996 70.4 28.4952 70.4 28.1196V26.2796C70.4 25.9041 70.0956 25.5996 69.72 25.5996Z" fill="#636262"/>
<path id="Vector_70" d="M76.12 25.5996H74.28C73.9044 25.5996 73.6 25.9041 73.6 26.2796V28.1196C73.6 28.4952 73.9044 28.7996 74.28 28.7996H76.12C76.4955 28.7996 76.8 28.4952 76.8 28.1196V26.2796C76.8 25.9041 76.4955 25.5996 76.12 25.5996Z" fill="#636262"/>
<path id="Vector_71" d="M0 31.3208C0 31.7008 0.3 32.0008 0.68 32.0008H2.52C2.9 32.0008 3.2 31.7008 3.2 31.3208V28.8008H0V31.3208Z" fill="#636262"/>
<path id="Vector_72" d="M3.88001 28.8008H3.20001V29.4808C3.20001 29.1008 3.50001 28.8008 3.88001 28.8008Z" fill="#636262"/>
<path id="Vector_73" d="M6.39997 29.4808V28.8008H5.71997C6.09997 28.8008 6.39997 29.1008 6.39997 29.4808Z" fill="#636262"/>
<path id="Vector_74" d="M6.40002 31.3208C6.40002 31.7008 6.70002 32.0008 7.08002 32.0008H8.92002C9.30002 32.0008 9.60002 31.7008 9.60002 31.3208V28.8008H6.40002V31.3208Z" fill="#636262"/>
<path id="Vector_75" d="M10.28 28.8008H9.59998V29.4808C9.59998 29.1008 9.89997 28.8008 10.28 28.8008Z" fill="#636262"/>
<path id="Vector_76" d="M12.8 29.4808V28.8008H12.12C12.5 28.8008 12.8 29.1008 12.8 29.4808Z" fill="#636262"/>
<path id="Vector_77" d="M12.8 31.3208C12.8 31.7008 13.1 32.0008 13.48 32.0008H16V28.8008H12.8V31.3208Z" fill="#636262"/>
<path id="Vector_78" d="M18.52 28.8008C18.9 28.8008 19.2 29.1008 19.2 29.4808V32.0008H16V28.8008H18.52Z" fill="#636262"/>
<path id="Vector_79" d="M19.88 32.0003C19.5 32.0003 19.2 31.7003 19.2 31.3203V32.0003H19.88Z" fill="#636262"/>
<path id="Vector_80" d="M25.6 29.4808V28.8008H24.92C25.3 28.8008 25.6 29.1008 25.6 29.4808Z" fill="#636262"/>
<path id="Vector_81" d="M28.8 28.8008H25.6V32.0008H28.8V28.8008Z" fill="#636262"/>
<path id="Vector_82" d="M32 28.8008H28.8V32.0008H32V28.8008Z" fill="#636262"/>
<path id="Vector_83" d="M32.68 28.8008H32V29.4808C32 29.1008 32.3 28.8008 32.68 28.8008Z" fill="#636262"/>
<path id="Vector_84" d="M51.2 29.4808V28.8008H50.52C50.9 28.8008 51.2 29.1008 51.2 29.4808Z" fill="#636262"/>
<path id="Vector_85" d="M51.2 31.3208C51.2 31.7008 51.5 32.0008 51.88 32.0008H54.4V28.8008H51.2V31.3208Z" fill="#636262"/>
<path id="Vector_86" d="M57.6 28.8008H54.4V32.0008H57.6V28.8008Z" fill="#636262"/>
<path id="Vector_87" d="M60.12 32.0003C60.5 32.0003 60.8 31.7003 60.8 31.3203V32.0003H60.12Z" fill="#636262"/>
<path id="Vector_88" d="M58.28 32.0003C57.9 32.0003 57.6 31.7003 57.6 31.3203V32.0003H58.28Z" fill="#636262"/>
<path id="Vector_89" d="M64 28.8008H60.8V32.0008H64V28.8008Z" fill="#636262"/>
<path id="Vector_90" d="M64.68 32.0003C64.3 32.0003 64 31.7003 64 31.3203V32.0003H64.68Z" fill="#636262"/>
<path id="Vector_91" d="M79.32 28.8008H77.48C77.1045 28.8008 76.8 29.1052 76.8 29.4808V31.3208C76.8 31.6963 77.1045 32.0008 77.48 32.0008H79.32C79.6956 32.0008 80 31.6963 80 31.3208V29.4808C80 29.1052 79.6956 28.8008 79.32 28.8008Z" fill="#636262"/>
<path id="Vector_92" d="M12.12 32H10.28C9.90442 32 9.59998 32.3044 9.59998 32.68V34.52C9.59998 34.8956 9.90442 35.2 10.28 35.2H12.12C12.4955 35.2 12.8 34.8956 12.8 34.52V32.68C12.8 32.3044 12.4955 32 12.12 32Z" fill="#636262"/>
<path id="Vector_93" d="M16 32.68V32H15.32C15.7 32 16 32.3 16 32.68Z" fill="#636262"/>
<path id="Vector_94" d="M16 34.52C16 34.9 16.3 35.2 16.68 35.2H19.2V32H16V34.52Z" fill="#636262"/>
<path id="Vector_95" d="M19.88 35.2H21.72C22.1 35.2 22.4 34.9 22.4 34.52V32.68C22.4 32.3 22.1 32 21.72 32H19.2V35.2H19.88Z" fill="#636262"/>
<path id="Vector_96" d="M25.6 34.52C25.6 34.9 25.9 35.2 26.28 35.2H28.8V32H25.6V34.52Z" fill="#636262"/>
<path id="Vector_97" d="M32 32H28.8V35.2H32V32Z" fill="#636262"/>
<path id="Vector_98" d="M34.52 35.1995C34.9 35.1995 35.2 34.8995 35.2 34.5195V35.1995H34.52Z" fill="#636262"/>
<path id="Vector_99" d="M32.68 35.1995C32.3 35.1995 32 34.8995 32 34.5195V35.1995H32.68Z" fill="#636262"/>
<path id="Vector_100" d="M35.88 32C35.5 32 35.2 32.3 35.2 32.68V35.2H38.4V32H35.88Z" fill="#636262"/>
<path id="Vector_101" d="M41.6 32H38.4V35.2H41.6V32Z" fill="#636262"/>
<path id="Vector_102" d="M44.8 32H41.6V35.2H44.8V32Z" fill="#636262"/>
<path id="Vector_103" d="M45.48 35.2H47.32C47.7 35.2 48 34.9 48 34.52V32.68C48 32.3 47.7 32 47.32 32H44.8V35.2H45.48Z" fill="#636262"/>
<path id="Vector_104" d="M54.4 32.68V32H53.72C54.1 32 54.4 32.3 54.4 32.68Z" fill="#636262"/>
<path id="Vector_105" d="M53.72 35.1995C54.1 35.1995 54.4 34.8995 54.4 34.5195V35.1995H53.72Z" fill="#636262"/>
<path id="Vector_106" d="M57.6 32H54.4V35.2H57.6V32Z" fill="#636262"/>
<path id="Vector_107" d="M60.8 32H57.6V35.2H60.8V32Z" fill="#636262"/>
<path id="Vector_108" d="M64 32H60.8V35.2H64V32Z" fill="#636262"/>
<path id="Vector_109" d="M64.68 35.2H66.52C66.9 35.2 67.2 34.9 67.2 34.52V32.68C67.2 32.3 66.9 32 66.52 32H64V35.2H64.68Z" fill="#636262"/>
<path id="Vector_110" d="M72.92 32H71.08C70.7045 32 70.4 32.3044 70.4 32.68V34.52C70.4 34.8956 70.7045 35.2 71.08 35.2H72.92C73.2956 35.2 73.6 34.8956 73.6 34.52V32.68C73.6 32.3044 73.2956 32 72.92 32Z" fill="#636262"/>
<path id="Vector_111" d="M2.52 35.1992H0.68C0.304446 35.1992 0 35.5037 0 35.8792V37.7192C0 38.0948 0.304446 38.3992 0.68 38.3992H2.52C2.89555 38.3992 3.2 38.0948 3.2 37.7192V35.8792C3.2 35.5037 2.89555 35.1992 2.52 35.1992Z" fill="#636262"/>
<path id="Vector_112" d="M8.92002 35.1992H7.08002C6.70447 35.1992 6.40002 35.5037 6.40002 35.8792V37.7192C6.40002 38.0948 6.70447 38.3992 7.08002 38.3992H8.92002C9.29558 38.3992 9.60002 38.0948 9.60002 37.7192V35.8792C9.60002 35.5037 9.29558 35.1992 8.92002 35.1992Z" fill="#636262"/>
<path id="Vector_113" d="M15.32 35.1992H13.48C13.1044 35.1992 12.8 35.5037 12.8 35.8792V37.7192C12.8 38.0948 13.1044 38.3992 13.48 38.3992H15.32C15.6955 38.3992 16 38.0948 16 37.7192V35.8792C16 35.5037 15.6955 35.1992 15.32 35.1992Z" fill="#636262"/>
<path id="Vector_114" d="M28.8 35.8792V35.1992H28.12C28.5 35.1992 28.8 35.4992 28.8 35.8792Z" fill="#636262"/>
<path id="Vector_115" d="M32 35.1992H28.8V38.3992H32V35.1992Z" fill="#636262"/>
<path id="Vector_116" d="M35.2 35.1992H32V38.3992H35.2V35.1992Z" fill="#636262"/>
<path id="Vector_117" d="M38.4 35.1992H35.2V38.3992H38.4V35.1992Z" fill="#636262"/>
<path id="Vector_118" d="M39.08 35.1992H38.4V35.8792C38.4 35.4992 38.7 35.1992 39.08 35.1992Z" fill="#636262"/>
<path id="Vector_119" d="M50.52 38.4007C50.9 38.4007 51.2 38.1007 51.2 37.7207V38.4007H50.52Z" fill="#636262"/>
<path id="Vector_120" d="M51.88 35.1992C51.5 35.1992 51.2 35.4992 51.2 35.8792V38.3992H54.4V35.1992H51.88Z" fill="#636262"/>
<path id="Vector_121" d="M57.6 35.1992H54.4V38.3992H57.6V35.1992Z" fill="#636262"/>
<path id="Vector_122" d="M58.28 35.1992H57.6V35.8792C57.6 35.4992 57.9 35.1992 58.28 35.1992Z" fill="#636262"/>
<path id="Vector_123" d="M60.8 35.8792V35.1992H60.12C60.5 35.1992 60.8 35.4992 60.8 35.8792Z" fill="#636262"/>
<path id="Vector_124" d="M60.12 38.4007C60.5 38.4007 60.8 38.1007 60.8 37.7207V38.4007H60.12Z" fill="#636262"/>
<path id="Vector_125" d="M58.28 38.4007C57.9 38.4007 57.6 38.1007 57.6 37.7207V38.4007H58.28Z" fill="#636262"/>
<path id="Vector_126" d="M64 35.1992H60.8V38.3992H64V35.1992Z" fill="#636262"/>
<path id="Vector_127" d="M64.68 35.1992H64V35.8792C64 35.4992 64.3 35.1992 64.68 35.1992Z" fill="#636262"/>
<path id="Vector_128" d="M64.68 38.4007C64.3 38.4007 64 38.1007 64 37.7207V38.4007H64.68Z" fill="#636262"/>
<path id="Vector_129" d="M12.12 38.4004H10.28C9.90442 38.4004 9.59998 38.7048 9.59998 39.0804V40.9204C9.59998 41.2959 9.90442 41.6004 10.28 41.6004H12.12C12.4955 41.6004 12.8 41.2959 12.8 40.9204V39.0804C12.8 38.7048 12.4955 38.4004 12.12 38.4004Z" fill="#636262"/>
<path id="Vector_130" d="M16.68 38.4004C16.3 38.4004 16 38.7004 16 39.0804V41.6004H19.2V38.4004H16.68Z" fill="#636262"/>
<path id="Vector_131" d="M22.4 38.4004H19.2V41.6004H22.4V38.4004Z" fill="#636262"/>
<path id="Vector_132" d="M23.08 41.6004H24.92C25.3 41.6004 25.6 41.3004 25.6 40.9204V39.0804C25.6 38.7004 25.3 38.4004 24.92 38.4004H22.4V41.6004H23.08Z" fill="#636262"/>
<path id="Vector_133" d="M28.8 40.9204C28.8 41.3004 29.1 41.6004 29.48 41.6004H31.32C31.7 41.6004 32 41.3004 32 40.9204V38.4004H28.8V40.9204Z" fill="#636262"/>
<path id="Vector_134" d="M32.68 38.4004H32V39.0804C32 38.7004 32.3 38.4004 32.68 38.4004Z" fill="#636262"/>
<path id="Vector_135" d="M35.2 39.0804V38.4004H34.52C34.9 38.4004 35.2 38.7004 35.2 39.0804Z" fill="#636262"/>
<path id="Vector_136" d="M35.2 40.9204C35.2 41.3004 35.5 41.6004 35.88 41.6004H37.72C38.1 41.6004 38.4 41.3004 38.4 40.9204V38.4004H35.2V40.9204Z" fill="#636262"/>
<path id="Vector_137" d="M44.12 38.4004H42.28C41.9044 38.4004 41.6 38.7048 41.6 39.0804V40.9204C41.6 41.2959 41.9044 41.6004 42.28 41.6004H44.12C44.4955 41.6004 44.8 41.2959 44.8 40.9204V39.0804C44.8 38.7048 44.4955 38.4004 44.12 38.4004Z" fill="#636262"/>
<path id="Vector_138" d="M50.52 38.4004H48.68C48.3 38.4004 48 38.7004 48 39.0804V40.9204C48 41.3004 48.3 41.6004 48.68 41.6004H51.2V38.4004H50.52Z" fill="#636262"/>
<path id="Vector_139" d="M54.4 38.4004H51.2V41.6004H54.4V38.4004Z" fill="#636262"/>
<path id="Vector_140" d="M57.6 38.4004H54.4V41.6004H57.6V38.4004Z" fill="#636262"/>
<path id="Vector_141" d="M60.8 38.4004H57.6V41.6004H60.8V38.4004Z" fill="#636262"/>
<path id="Vector_142" d="M64 38.4004H60.8V41.6004H64V38.4004Z" fill="#636262"/>
<path id="Vector_143" d="M67.2 38.4004H64V41.6004H67.2V38.4004Z" fill="#636262"/>
<path id="Vector_144" d="M67.88 41.6004H69.72C70.1 41.6004 70.4 41.3004 70.4 40.9204V39.0804C70.4 38.7004 70.1 38.4004 69.72 38.4004H67.2V41.6004H67.88Z" fill="#636262"/>
<path id="Vector_145" d="M76.12 38.4004H74.28C73.9 38.4004 73.6 38.7004 73.6 39.0804V40.9204C73.6 41.3004 73.9 41.6004 74.28 41.6004H76.8V38.4004H76.12Z" fill="#636262"/>
<path id="Vector_146" d="M77.48 41.6004H79.32C79.7 41.6004 80 41.3004 80 40.9204V39.0804C80 38.7004 79.7 38.4004 79.32 38.4004H76.8V41.6004H77.48Z" fill="#636262"/>
<path id="Vector_147" d="M0.68 41.5996C0.3 41.5996 0 41.8996 0 42.2796V44.7996H3.2V41.5996H0.68Z" fill="#636262"/>
<path id="Vector_148" d="M6.40001 41.5996H3.20001V44.7996H6.40001V41.5996Z" fill="#636262"/>
<path id="Vector_149" d="M8.92002 41.5996C9.30002 41.5996 9.60002 41.8996 9.60002 42.2796V44.7996H6.40002V41.5996H8.92002Z" fill="#636262"/>
<path id="Vector_150" d="M10.28 44.7991C9.89997 44.7991 9.59998 44.4991 9.59998 44.1191V44.7991H10.28Z" fill="#636262"/>
<path id="Vector_151" d="M16 44.1196C16 44.4996 16.3 44.7996 16.68 44.7996H18.52C18.9 44.7996 19.2 44.4996 19.2 44.1196V41.5996H16V44.1196Z" fill="#636262"/>
<path id="Vector_152" d="M19.88 41.5996H19.2V42.2796C19.2 41.8996 19.5 41.5996 19.88 41.5996Z" fill="#636262"/>
<path id="Vector_153" d="M28.8 44.1196V42.2796C28.8 41.8996 28.5 41.5996 28.12 41.5996H26.28C25.9 41.5996 25.6 41.8996 25.6 42.2796V44.7996H28.8V44.1196Z" fill="#636262"/>
<path id="Vector_154" d="M31.32 44.7991C31.7 44.7991 32 44.4991 32 44.1191V44.7991H31.32Z" fill="#636262"/>
<path id="Vector_155" d="M29.48 44.7991C29.1 44.7991 28.8 44.4991 28.8 44.1191V44.7991H29.48Z" fill="#636262"/>
<path id="Vector_156" d="M35.2 44.1196V42.2796C35.2 41.8996 34.9 41.5996 34.52 41.5996H32.68C32.3 41.5996 32 41.8996 32 42.2796V44.7996H35.2V44.1196Z" fill="#636262"/>
<path id="Vector_157" d="M40.92 41.5996H39.08C38.7045 41.5996 38.4 41.9041 38.4 42.2796V44.1196C38.4 44.4952 38.7045 44.7996 39.08 44.7996H40.92C41.2956 44.7996 41.6 44.4952 41.6 44.1196V42.2796C41.6 41.9041 41.2956 41.5996 40.92 41.5996Z" fill="#636262"/>
<path id="Vector_158" d="M44.12 44.7991C44.5 44.7991 44.8 44.4991 44.8 44.1191V44.7991H44.12Z" fill="#636262"/>
<path id="Vector_159" d="M48 44.1196V42.2796C48 41.8996 47.7 41.5996 47.32 41.5996H45.48C45.1 41.5996 44.8 41.8996 44.8 42.2796V44.7996H48V44.1196Z" fill="#636262"/>
<path id="Vector_160" d="M51.2 42.2796V41.5996H50.52C50.9 41.5996 51.2 41.8996 51.2 42.2796Z" fill="#636262"/>
<path id="Vector_161" d="M51.2 44.1196C51.2 44.4996 51.5 44.7996 51.88 44.7996H54.4V41.5996H51.2V44.1196Z" fill="#636262"/>
<path id="Vector_162" d="M57.6 41.5996H54.4V44.7996H57.6V41.5996Z" fill="#636262"/>
<path id="Vector_163" d="M58.28 41.5996H57.6V42.2796C57.6 41.8996 57.9 41.5996 58.28 41.5996Z" fill="#636262"/>
<path id="Vector_164" d="M60.8 42.2796V41.5996H60.12C60.5 41.5996 60.8 41.8996 60.8 42.2796Z" fill="#636262"/>
<path id="Vector_165" d="M58.28 44.7991C57.9 44.7991 57.6 44.4991 57.6 44.1191V44.7991H58.28Z" fill="#636262"/>
<path id="Vector_166" d="M60.8 44.1196C60.8 44.4996 61.1 44.7996 61.48 44.7996H64V41.5996H60.8V44.1196Z" fill="#636262"/>
<path id="Vector_167" d="M67.2 41.5996H64V44.7996H67.2V41.5996Z" fill="#636262"/>
<path id="Vector_168" d="M67.88 41.5996H67.2V42.2796C67.2 41.8996 67.5 41.5996 67.88 41.5996Z" fill="#636262"/>
<path id="Vector_169" d="M3.2 44.8008H0V48.0008H3.2V44.8008Z" fill="#636262"/>
<path id="Vector_170" d="M3.88001 44.8008H3.20001V45.4808C3.20001 45.1008 3.50001 44.8008 3.88001 44.8008Z" fill="#636262"/>
<path id="Vector_171" d="M6.39997 45.4808V44.8008H5.71997C6.09997 44.8008 6.39997 45.1008 6.39997 45.4808Z" fill="#636262"/>
<path id="Vector_172" d="M6.40002 47.3208C6.40002 47.7008 6.70002 48.0008 7.08002 48.0008H9.60002V44.8008H6.40002V47.3208Z" fill="#636262"/>
<path id="Vector_173" d="M12.8 44.8008H9.59998V48.0008H12.8V44.8008Z" fill="#636262"/>
<path id="Vector_174" d="M13.48 48.0008H15.32C15.7 48.0008 16 47.7008 16 47.3208V45.4808C16 45.1008 15.7 44.8008 15.32 44.8008H12.8V48.0008H13.48Z" fill="#636262"/>
<path id="Vector_175" d="M21.72 44.8008H19.88C19.5045 44.8008 19.2 45.1052 19.2 45.4808V47.3208C19.2 47.6963 19.5045 48.0008 19.88 48.0008H21.72C22.0956 48.0008 22.4 47.6963 22.4 47.3208V45.4808C22.4 45.1052 22.0956 44.8008 21.72 44.8008Z" fill="#636262"/>
<path id="Vector_176" d="M25.6 47.3208C25.6 47.7008 25.9 48.0008 26.28 48.0008H28.8V44.8008H25.6V47.3208Z" fill="#636262"/>
<path id="Vector_177" d="M32 44.8008H28.8V48.0008H32V44.8008Z" fill="#636262"/>
<path id="Vector_178" d="M35.2 47.3208C35.2 47.7008 34.9 48.0008 34.52 48.0008H32V44.8008H35.2V47.3208Z" fill="#636262"/>
<path id="Vector_179" d="M40.92 48.0003C41.3 48.0003 41.6 47.7003 41.6 47.3203V48.0003H40.92Z" fill="#636262"/>
<path id="Vector_180" d="M42.28 44.8008C41.9 44.8008 41.6 45.1008 41.6 45.4808V48.0008H44.8V44.8008H42.28Z" fill="#636262"/>
<path id="Vector_181" d="M48 47.3208C48 47.7008 47.7 48.0008 47.32 48.0008H44.8V44.8008H48V47.3208Z" fill="#636262"/>
<path id="Vector_182" d="M54.4 45.4808V44.8008H53.72C54.1 44.8008 54.4 45.1008 54.4 45.4808Z" fill="#636262"/>
<path id="Vector_183" d="M53.72 48.0003C54.1 48.0003 54.4 47.7003 54.4 47.3203V48.0003H53.72Z" fill="#636262"/>
<path id="Vector_184" d="M57.6 44.8008H54.4V48.0008H57.6V44.8008Z" fill="#636262"/>
<path id="Vector_185" d="M58.28 48.0008H60.12C60.5 48.0008 60.8 47.7008 60.8 47.3208V45.4808C60.8 45.1008 60.5 44.8008 60.12 44.8008H57.6V48.0008H58.28Z" fill="#636262"/>
<path id="Vector_186" d="M64 45.4808V44.8008H63.32C63.7 44.8008 64 45.1008 64 45.4808Z" fill="#636262"/>
<path id="Vector_187" d="M64 47.3208C64 47.7008 64.3 48.0008 64.68 48.0008H66.52C66.9 48.0008 67.2 47.7008 67.2 47.3208V44.8008H64V47.3208Z" fill="#636262"/>
<path id="Vector_188" d="M72.92 44.8008H71.08C70.7 44.8008 70.4 45.1008 70.4 45.4808V47.3208C70.4 47.7008 70.7 48.0008 71.08 48.0008H73.6V44.8008H72.92Z" fill="#636262"/>
<path id="Vector_189" d="M76.8 44.8008H73.6V48.0008H76.8V44.8008Z" fill="#636262"/>
<path id="Vector_190" d="M79.32 44.8008C79.7 44.8008 80 45.1008 80 45.4808V48.0008H76.8V44.8008H79.32Z" fill="#636262"/>
<path id="Vector_191" d="M3.2 48H0V51.2H3.2V48Z" fill="#636262"/>
<path id="Vector_192" d="M19.2 50.52V48.68C19.2 48.3 18.9 48 18.52 48H16.68C16.3 48 16 48.3 16 48.68V51.2H19.2V50.52Z" fill="#636262"/>
<path id="Vector_193" d="M21.72 51.1995C22.1 51.1995 22.4 50.8995 22.4 50.5195V51.1995H21.72Z" fill="#636262"/>
<path id="Vector_194" d="M19.88 51.1995C19.5 51.1995 19.2 50.8995 19.2 50.5195V51.1995H19.88Z" fill="#636262"/>
<path id="Vector_195" d="M25.6 50.52V48.68C25.6 48.3 25.3 48 24.92 48H23.08C22.7 48 22.4 48.3 22.4 48.68V51.2H25.6V50.52Z" fill="#636262"/>
<path id="Vector_196" d="M39.08 48C38.7 48 38.4 48.3 38.4 48.68V51.2H41.6V48H39.08Z" fill="#636262"/>
<path id="Vector_197" d="M44.8 48H41.6V51.2H44.8V48Z" fill="#636262"/>
<path id="Vector_198" d="M45.48 48H44.8V48.68C44.8 48.3 45.1 48 45.48 48Z" fill="#636262"/>
<path id="Vector_199" d="M45.48 51.1995C45.1 51.1995 44.8 50.8995 44.8 50.5195V51.1995H45.48Z" fill="#636262"/>
<path id="Vector_200" d="M50.52 51.1995C50.9 51.1995 51.2 50.8995 51.2 50.5195V51.1995H50.52Z" fill="#636262"/>
<path id="Vector_201" d="M51.88 48C51.5 48 51.2 48.3 51.2 48.68V51.2H54.4V48H51.88Z" fill="#636262"/>
<path id="Vector_202" d="M57.6 48H54.4V51.2H57.6V48Z" fill="#636262"/>
<path id="Vector_203" d="M58.28 48H57.6V48.68C57.6 48.3 57.9 48 58.28 48Z" fill="#636262"/>
<path id="Vector_204" d="M58.28 51.1995C57.9 51.1995 57.6 50.8995 57.6 50.5195V51.1995H58.28Z" fill="#636262"/>
<path id="Vector_205" d="M73.6 48.68V48H72.92C73.3 48 73.6 48.3 73.6 48.68Z" fill="#636262"/>
<path id="Vector_206" d="M73.6 50.52C73.6 50.9 73.9 51.2 74.28 51.2H76.8V48H73.6V50.52Z" fill="#636262"/>
<path id="Vector_207" d="M80 48H76.8V51.2H80V48Z" fill="#636262"/>
<path id="Vector_208" d="M0 53.7192C0 54.0992 0.3 54.3992 0.68 54.3992H2.52C2.9 54.3992 3.2 54.0992 3.2 53.7192V51.1992H0V53.7192Z" fill="#636262"/>
<path id="Vector_209" d="M16 53.7192C16 54.0992 16.3 54.3992 16.68 54.3992H19.2V51.1992H16V53.7192Z" fill="#636262"/>
<path id="Vector_210" d="M22.4 51.1992H19.2V54.3992H22.4V51.1992Z" fill="#636262"/>
<path id="Vector_211" d="M25.6 53.7192C25.6 54.0992 25.3 54.3992 24.92 54.3992H22.4V51.1992H25.6V53.7192Z" fill="#636262"/>
<path id="Vector_212" d="M28.12 54.4007C28.5 54.4007 28.8 54.1007 28.8 53.7207V54.4007H28.12Z" fill="#636262"/>
<path id="Vector_213" d="M32 53.7192V51.8792C32 51.4992 31.7 51.1992 31.32 51.1992H29.48C29.1 51.1992 28.8 51.4992 28.8 51.8792V54.3992H32V53.7192Z" fill="#636262"/>
<path id="Vector_214" d="M32.68 54.4007C32.3 54.4007 32 54.1007 32 53.7207V54.4007H32.68Z" fill="#636262"/>
<path id="Vector_215" d="M38.4 53.7192C38.4 54.0992 38.7 54.3992 39.08 54.3992H41.6V51.1992H38.4V53.7192Z" fill="#636262"/>
<path id="Vector_216" d="M44.8 51.1992H41.6V54.3992H44.8V51.1992Z" fill="#636262"/>
<path id="Vector_217" d="M48 51.1992H44.8V54.3992H48V51.1992Z" fill="#636262"/>
<path id="Vector_218" d="M51.2 51.1992H48V54.3992H51.2V51.1992Z" fill="#636262"/>
<path id="Vector_219" d="M54.4 51.1992H51.2V54.3992H54.4V51.1992Z" fill="#636262"/>
<path id="Vector_220" d="M57.6 51.1992H54.4V54.3992H57.6V51.1992Z" fill="#636262"/>
<path id="Vector_221" d="M60.8 51.1992H57.6V54.3992H60.8V51.1992Z" fill="#636262"/>
<path id="Vector_222" d="M64 51.1992H60.8V54.3992H64V51.1992Z" fill="#636262"/>
<path id="Vector_223" d="M67.2 51.1992H64V54.3992H67.2V51.1992Z" fill="#636262"/>
<path id="Vector_224" d="M67.88 54.3992H69.72C70.1 54.3992 70.4 54.0992 70.4 53.7192V51.8792C70.4 51.4992 70.1 51.1992 69.72 51.1992H67.2V54.3992H67.88Z" fill="#636262"/>
<path id="Vector_225" d="M76.8 51.8792V51.1992H76.12C76.5 51.1992 76.8 51.4992 76.8 51.8792Z" fill="#636262"/>
<path id="Vector_226" d="M80 51.1992H76.8V54.3992H80V51.1992Z" fill="#636262"/>
<path id="Vector_227" d="M26.28 54.4004C25.9 54.4004 25.6 54.7004 25.6 55.0804V57.6004H28.8V54.4004H26.28Z" fill="#636262"/>
<path id="Vector_228" d="M32 54.4004H28.8V57.6004H32V54.4004Z" fill="#636262"/>
<path id="Vector_229" d="M32.68 57.6004H34.52C34.9 57.6004 35.2 57.3004 35.2 56.9204V55.0804C35.2 54.7004 34.9 54.4004 34.52 54.4004H32V57.6004H32.68Z" fill="#636262"/>
<path id="Vector_230" d="M44.8 55.0804V54.4004H44.12C44.5 54.4004 44.8 54.7004 44.8 55.0804Z" fill="#636262"/>
<path id="Vector_231" d="M44.12 57.5999C44.5 57.5999 44.8 57.2999 44.8 56.9199V57.5999H44.12Z" fill="#636262"/>
<path id="Vector_232" d="M48 54.4004H44.8V57.6004H48V54.4004Z" fill="#636262"/>
<path id="Vector_233" d="M48.68 54.4004H48V55.0804C48 54.7004 48.3 54.4004 48.68 54.4004Z" fill="#636262"/>
<path id="Vector_234" d="M51.2 55.0804V54.4004H50.52C50.9 54.4004 51.2 54.7004 51.2 55.0804Z" fill="#636262"/>
<path id="Vector_235" d="M54.4 54.4004H51.2V57.6004H54.4V54.4004Z" fill="#636262"/>
<path id="Vector_236" d="M55.08 54.4004H54.4V55.0804C54.4 54.7004 54.7 54.4004 55.08 54.4004Z" fill="#636262"/>
<path id="Vector_237" d="M64 55.0804V54.4004H63.32C63.7 54.4004 64 54.7004 64 55.0804Z" fill="#636262"/>
<path id="Vector_238" d="M67.2 54.4004H64V57.6004H67.2V54.4004Z" fill="#636262"/>
<path id="Vector_239" d="M67.88 54.4004H67.2V55.0804C67.2 54.7004 67.5 54.4004 67.88 54.4004Z" fill="#636262"/>
<path id="Vector_240" d="M76.12 57.5999C76.5 57.5999 76.8 57.2999 76.8 56.9199V57.5999H76.12Z" fill="#636262"/>
<path id="Vector_241" d="M80 54.4004H76.8V57.6004H80V54.4004Z" fill="#636262"/>
<path id="Vector_242" d="M25.6 60.1196C25.6 60.4996 25.9 60.7996 26.28 60.7996H28.8V57.5996H25.6V60.1196Z" fill="#636262"/>
<path id="Vector_243" d="M32 57.5996H28.8V60.7996H32V57.5996Z" fill="#636262"/>
<path id="Vector_244" d="M32.68 57.5996H32V58.2796C32 57.8996 32.3 57.5996 32.68 57.5996Z" fill="#636262"/>
<path id="Vector_245" d="M34.52 60.7991C34.9 60.7991 35.2 60.4991 35.2 60.1191V60.7991H34.52Z" fill="#636262"/>
<path id="Vector_246" d="M32.68 60.7991C32.3 60.7991 32 60.4991 32 60.1191V60.7991H32.68Z" fill="#636262"/>
<path id="Vector_247" d="M35.88 57.5996C35.5 57.5996 35.2 57.8996 35.2 58.2796V60.7996H38.4V57.5996H35.88Z" fill="#636262"/>
<path id="Vector_248" d="M41.6 57.5996H38.4V60.7996H41.6V57.5996Z" fill="#636262"/>
<path id="Vector_249" d="M44.8 57.5996H41.6V60.7996H44.8V57.5996Z" fill="#636262"/>
<path id="Vector_250" d="M48 60.1196C48 60.4996 47.7 60.7996 47.32 60.7996H44.8V57.5996H48V60.1196Z" fill="#636262"/>
<path id="Vector_251" d="M54.4 57.5996H51.2V60.7996H54.4V57.5996Z" fill="#636262"/>
<path id="Vector_252" d="M60.12 57.5996H58.28C57.9044 57.5996 57.6 57.9041 57.6 58.2796V60.1196C57.6 60.4952 57.9044 60.7996 58.28 60.7996H60.12C60.4955 60.7996 60.8 60.4952 60.8 60.1196V58.2796C60.8 57.9041 60.4955 57.5996 60.12 57.5996Z" fill="#636262"/>
<path id="Vector_253" d="M67.2 57.5996H64V60.7996H67.2V57.5996Z" fill="#636262"/>
<path id="Vector_254" d="M67.88 60.7991C67.5 60.7991 67.2 60.4991 67.2 60.1191V60.7991H67.88Z" fill="#636262"/>
<path id="Vector_255" d="M72.92 57.5996H71.08C70.7 57.5996 70.4 57.8996 70.4 58.2796V60.1196C70.4 60.4996 70.7 60.7996 71.08 60.7996H73.6V57.5996H72.92Z" fill="#636262"/>
<path id="Vector_256" d="M76.8 57.5996H73.6V60.7996H76.8V57.5996Z" fill="#636262"/>
<path id="Vector_257" d="M80 60.1196C80 60.4996 79.7 60.7996 79.32 60.7996H76.8V57.5996H80V60.1196Z" fill="#636262"/>
<path id="Vector_258" d="M28.8 61.4808V60.8008H28.12C28.5 60.8008 28.8 61.1008 28.8 61.4808Z" fill="#636262"/>
<path id="Vector_259" d="M28.8 63.3208C28.8 63.7008 29.1 64.0008 29.48 64.0008H32V60.8008H28.8V63.3208Z" fill="#636262"/>
<path id="Vector_260" d="M35.2 60.8008H32V64.0008H35.2V60.8008Z" fill="#636262"/>
<path id="Vector_261" d="M38.4 60.8008H35.2V64.0008H38.4V60.8008Z" fill="#636262"/>
<path id="Vector_262" d="M39.08 60.8008H38.4V61.4808C38.4 61.1008 38.7 60.8008 39.08 60.8008Z" fill="#636262"/>
<path id="Vector_263" d="M41.6 61.4808V60.8008H40.92C41.3 60.8008 41.6 61.1008 41.6 61.4808Z" fill="#636262"/>
<path id="Vector_264" d="M39.08 64.0003C38.7 64.0003 38.4 63.7003 38.4 63.3203V64.0003H39.08Z" fill="#636262"/>
<path id="Vector_265" d="M41.6 63.3208C41.6 63.7008 41.9 64.0008 42.28 64.0008H44.12C44.5 64.0008 44.8 63.7008 44.8 63.3208V60.8008H41.6V63.3208Z" fill="#636262"/>
<path id="Vector_266" d="M45.48 60.8008H44.8V61.4808C44.8 61.1008 45.1 60.8008 45.48 60.8008Z" fill="#636262"/>
<path id="Vector_267" d="M50.52 64.0003C50.9 64.0003 51.2 63.7003 51.2 63.3203V64.0003H50.52Z" fill="#636262"/>
<path id="Vector_268" d="M54.4 60.8008H51.2V64.0008H54.4V60.8008Z" fill="#636262"/>
<path id="Vector_269" d="M55.08 64.0003C54.7 64.0003 54.4 63.7003 54.4 63.3203V64.0003H55.08Z" fill="#636262"/>
<path id="Vector_270" d="M63.32 64.0003C63.7 64.0003 64 63.7003 64 63.3203V64.0003H63.32Z" fill="#636262"/>
<path id="Vector_271" d="M67.2 60.8008H64V64.0008H67.2V60.8008Z" fill="#636262"/>
<path id="Vector_272" d="M69.72 60.8008C70.1 60.8008 70.4 61.1008 70.4 61.4808V64.0008H67.2V60.8008H69.72Z" fill="#636262"/>
<path id="Vector_273" d="M28.8 66.52V64.68C28.8 64.3 28.5 64 28.12 64H26.28C25.9 64 25.6 64.3 25.6 64.68V67.2H28.8V66.52Z" fill="#636262"/>
<path id="Vector_274" d="M32 64.68V64H31.32C31.7 64 32 64.3 32 64.68Z" fill="#636262"/>
<path id="Vector_275" d="M32 66.52C32 66.9 32.3 67.2 32.68 67.2H35.2V64H32V66.52Z" fill="#636262"/>
<path id="Vector_276" d="M38.4 64H35.2V67.2H38.4V64Z" fill="#636262"/>
<path id="Vector_277" d="M40.92 64C41.3 64 41.6 64.3 41.6 64.68V67.2H38.4V64H40.92Z" fill="#636262"/>
<path id="Vector_278" d="M45.48 64C45.1 64 44.8 64.3 44.8 64.68V67.2H48V64H45.48Z" fill="#636262"/>
<path id="Vector_279" d="M51.2 64H48V67.2H51.2V64Z" fill="#636262"/>
<path id="Vector_280" d="M54.4 64H51.2V67.2H54.4V64Z" fill="#636262"/>
<path id="Vector_281" d="M57.6 64H54.4V67.2H57.6V64Z" fill="#636262"/>
<path id="Vector_282" d="M60.8 64H57.6V67.2H60.8V64Z" fill="#636262"/>
<path id="Vector_283" d="M64 64H60.8V67.2H64V64Z" fill="#636262"/>
<path id="Vector_284" d="M67.2 64H64V67.2H67.2V64Z" fill="#636262"/>
<path id="Vector_285" d="M70.4 64H67.2V67.2H70.4V64Z" fill="#636262"/>
<path id="Vector_286" d="M28.8 67.1992H25.6V70.3992H28.8V67.1992Z" fill="#636262"/>
<path id="Vector_287" d="M29.48 70.4007C29.1 70.4007 28.8 70.1007 28.8 69.7207V70.4007H29.48Z" fill="#636262"/>
<path id="Vector_288" d="M38.4 67.8792V67.1992H37.72C38.1 67.1992 38.4 67.4992 38.4 67.8792Z" fill="#636262"/>
<path id="Vector_289" d="M41.6 67.1992H38.4V70.3992H41.6V67.1992Z" fill="#636262"/>
<path id="Vector_290" d="M42.28 70.4007C41.9 70.4007 41.6 70.1007 41.6 69.7207V70.4007H42.28Z" fill="#636262"/>
<path id="Vector_291" d="M44.8 69.7192C44.8 70.0992 45.1 70.3992 45.48 70.3992H48V67.1992H44.8V69.7192Z" fill="#636262"/>
<path id="Vector_292" d="M51.2 67.1992H48V70.3992H51.2V67.1992Z" fill="#636262"/>
<path id="Vector_293" d="M54.4 67.1992H51.2V70.3992H54.4V67.1992Z" fill="#636262"/>
<path id="Vector_294" d="M57.6 67.1992H54.4V70.3992H57.6V67.1992Z" fill="#636262"/>
<path id="Vector_295" d="M60.8 67.1992H57.6V70.3992H60.8V67.1992Z" fill="#636262"/>
<path id="Vector_296" d="M64 67.1992H60.8V70.3992H64V67.1992Z" fill="#636262"/>
<path id="Vector_297" d="M67.2 67.1992H64V70.3992H67.2V67.1992Z" fill="#636262"/>
<path id="Vector_298" d="M70.4 69.7192C70.4 70.0992 70.1 70.3992 69.72 70.3992H67.2V67.1992H70.4V69.7192Z" fill="#636262"/>
<path id="Vector_299" d="M76.12 67.1992H74.28C73.9 67.1992 73.6 67.4992 73.6 67.8792V69.7192C73.6 70.0992 73.9 70.3992 74.28 70.3992H76.8V67.1992H76.12Z" fill="#636262"/>
<path id="Vector_300" d="M79.32 67.1992C79.7 67.1992 80 67.4992 80 67.8792V70.3992H76.8V67.1992H79.32Z" fill="#636262"/>
<path id="Vector_301" d="M28.8 70.4004H25.6V73.6004H28.8V70.4004Z" fill="#636262"/>
<path id="Vector_302" d="M32 70.4004H28.8V73.6004H32V70.4004Z" fill="#636262"/>
<path id="Vector_303" d="M34.52 70.4004C34.9 70.4004 35.2 70.7004 35.2 71.0804V73.6004H32V70.4004H34.52Z" fill="#636262"/>
<path id="Vector_304" d="M41.6 70.4004H38.4V73.6004H41.6V70.4004Z" fill="#636262"/>
<path id="Vector_305" d="M44.12 70.4004C44.5 70.4004 44.8 70.7004 44.8 71.0804V73.6004H41.6V70.4004H44.12Z" fill="#636262"/>
<path id="Vector_306" d="M54.4 71.0804V70.4004H53.72C54.1 70.4004 54.4 70.7004 54.4 71.0804Z" fill="#636262"/>
<path id="Vector_307" d="M54.4 72.9204C54.4 73.3004 54.7 73.6004 55.08 73.6004H56.92C57.3 73.6004 57.6 73.3004 57.6 72.9204V70.4004H54.4V72.9204Z" fill="#636262"/>
<path id="Vector_308" d="M58.28 70.4004H57.6V71.0804C57.6 70.7004 57.9 70.4004 58.28 70.4004Z" fill="#636262"/>
<path id="Vector_309" d="M60.8 71.0804V70.4004H60.12C60.5 70.4004 60.8 70.7004 60.8 71.0804Z" fill="#636262"/>
<path id="Vector_310" d="M60.8 72.9204C60.8 73.3004 61.1 73.6004 61.48 73.6004H64V70.4004H60.8V72.9204Z" fill="#636262"/>
<path id="Vector_311" d="M67.2 70.4004H64V73.6004H67.2V70.4004Z" fill="#636262"/>
<path id="Vector_312" d="M67.88 70.4004H67.2V71.0804C67.2 70.7004 67.5 70.4004 67.88 70.4004Z" fill="#636262"/>
<path id="Vector_313" d="M69.72 73.5999C70.1 73.5999 70.4 73.2999 70.4 72.9199V73.5999H69.72Z" fill="#636262"/>
<path id="Vector_314" d="M67.88 73.5999C67.5 73.5999 67.2 73.2999 67.2 72.9199V73.5999H67.88Z" fill="#636262"/>
<path id="Vector_315" d="M73.6 72.9204V71.0804C73.6 70.7004 73.3 70.4004 72.92 70.4004H71.08C70.7 70.4004 70.4 70.7004 70.4 71.0804V73.6004H73.6V72.9204Z" fill="#636262"/>
<path id="Vector_316" d="M76.8 71.0804V70.4004H76.12C76.5 70.4004 76.8 70.7004 76.8 71.0804Z" fill="#636262"/>
<path id="Vector_317" d="M74.28 73.5999C73.9 73.5999 73.6 73.2999 73.6 72.9199V73.5999H74.28Z" fill="#636262"/>
<path id="Vector_318" d="M76.8 72.9204C76.8 73.3004 77.1 73.6004 77.48 73.6004H79.32C79.7 73.6004 80 73.3004 80 72.9204V70.4004H76.8V72.9204Z" fill="#636262"/>
<path id="Vector_319" d="M28.8 73.5996H25.6V76.7996H28.8V73.5996Z" fill="#636262"/>
<path id="Vector_320" d="M29.48 73.5996H28.8V74.2796C28.8 73.8996 29.1 73.5996 29.48 73.5996Z" fill="#636262"/>
<path id="Vector_321" d="M32 74.2796V73.5996H31.32C31.7 73.5996 32 73.8996 32 74.2796Z" fill="#636262"/>
<path id="Vector_322" d="M31.32 76.7991C31.7 76.7991 32 76.4991 32 76.1191V76.7991H31.32Z" fill="#636262"/>
<path id="Vector_323" d="M29.48 76.7991C29.1 76.7991 28.8 76.4991 28.8 76.1191V76.7991H29.48Z" fill="#636262"/>
<path id="Vector_324" d="M35.2 73.5996H32V76.7996H35.2V73.5996Z" fill="#636262"/>
<path id="Vector_325" d="M38.4 76.1196C38.4 76.4996 38.7 76.7996 39.08 76.7996H41.6V73.5996H38.4V76.1196Z" fill="#636262"/>
<path id="Vector_326" d="M44.8 73.5996H41.6V76.7996H44.8V73.5996Z" fill="#636262"/>
<path id="Vector_327" d="M45.48 76.7991C45.1 76.7991 44.8 76.4991 44.8 76.1191V76.7991H45.48Z" fill="#636262"/>
<path id="Vector_328" d="M50.52 73.5996H48.68C48.3 73.5996 48 73.8996 48 74.2796V76.1196C48 76.4996 48.3 76.7996 48.68 76.7996H51.2V73.5996H50.52Z" fill="#636262"/>
<path id="Vector_329" d="M53.72 73.5996C54.1 73.5996 54.4 73.8996 54.4 74.2796V76.7996H51.2V73.5996H53.72Z" fill="#636262"/>
<path id="Vector_330" d="M60.12 73.5996H58.28C57.9044 73.5996 57.6 73.9041 57.6 74.2796V76.1196C57.6 76.4952 57.9044 76.7996 58.28 76.7996H60.12C60.4955 76.7996 60.8 76.4952 60.8 76.1196V74.2796C60.8 73.9041 60.4955 73.5996 60.12 73.5996Z" fill="#636262"/>
<path id="Vector_331" d="M64 74.2796V73.5996H63.32C63.7 73.5996 64 73.8996 64 74.2796Z" fill="#636262"/>
<path id="Vector_332" d="M64 76.1196C64 76.4996 64.3 76.7996 64.68 76.7996H67.2V73.5996H64V76.1196Z" fill="#636262"/>
<path id="Vector_333" d="M70.4 73.5996H67.2V76.7996H70.4V73.5996Z" fill="#636262"/>
<path id="Vector_334" d="M73.6 73.5996H70.4V76.7996H73.6V73.5996Z" fill="#636262"/>
<path id="Vector_335" d="M76.12 73.5996C76.5 73.5996 76.8 73.8996 76.8 74.2796V76.7996H73.6V73.5996H76.12Z" fill="#636262"/>
<path id="Vector_336" d="M77.48 76.7991C77.1 76.7991 76.8 76.4991 76.8 76.1191V76.7991H77.48Z" fill="#636262"/>
<path id="Vector_337" d="M25.6 79.3208C25.6 79.7008 25.9 80.0008 26.28 80.0008H28.8V76.8008H25.6V79.3208Z" fill="#636262"/>
<path id="Vector_338" d="M32 76.8008H28.8V80.0008H32V76.8008Z" fill="#636262"/>
<path id="Vector_339" d="M35.2 79.3208C35.2 79.7008 34.9 80.0008 34.52 80.0008H32V76.8008H35.2V79.3208Z" fill="#636262"/>
<path id="Vector_340" d="M41.6 77.4808V76.8008H40.92C41.3 76.8008 41.6 77.1008 41.6 77.4808Z" fill="#636262"/>
<path id="Vector_341" d="M41.6 79.3208C41.6 79.7008 41.9 80.0008 42.28 80.0008H44.8V76.8008H41.6V79.3208Z" fill="#636262"/>
<path id="Vector_342" d="M45.48 80.0008H47.32C47.7 80.0008 48 79.7008 48 79.3208V77.4808C48 77.1008 47.7 76.8008 47.32 76.8008H44.8V80.0008H45.48Z" fill="#636262"/>
<path id="Vector_343" d="M51.2 77.4808V76.8008H50.52C50.9 76.8008 51.2 77.1008 51.2 77.4808Z" fill="#636262"/>
<path id="Vector_344" d="M51.2 79.3208C51.2 79.7008 51.5 80.0008 51.88 80.0008H53.72C54.1 80.0008 54.4 79.7008 54.4 79.3208V76.8008H51.2V79.3208Z" fill="#636262"/>
<path id="Vector_345" d="M67.2 77.4808V76.8008H66.52C66.9 76.8008 67.2 77.1008 67.2 77.4808Z" fill="#636262"/>
<path id="Vector_346" d="M67.2 79.3208C67.2 79.7008 67.5 80.0008 67.88 80.0008H70.4V76.8008H67.2V79.3208Z" fill="#636262"/>
<path id="Vector_347" d="M73.6 76.8008H70.4V80.0008H73.6V76.8008Z" fill="#636262"/>
<path id="Vector_348" d="M76.8 76.8008H73.6V80.0008H76.8V76.8008Z" fill="#636262"/>
<path id="Vector_349" d="M77.48 80.0008H79.32C79.7 80.0008 80 79.7008 80 79.3208V77.4808C80 77.1008 79.7 76.8008 79.32 76.8008H76.8V80.0008H77.48Z" fill="#636262"/>
<path id="Vector_350" d="M0.68 0C0.31 0 0 0.31 0 0.68V21.72C0 22.09 0.3 22.4 0.68 22.4H21.72C22.09 22.4 22.4 22.1 22.4 21.72V0.68C22.41 0.31 22.1 0 21.72 0H0.68ZM19.2 6.4V18.81C19.2 19.03 19.02 19.2 18.81 19.2H3.59C3.37 19.2 3.2 19.02 3.2 18.81V3.59C3.2 3.37 3.38 3.2 3.59 3.2H18.81C19.03 3.2 19.2 3.38 19.2 3.59V6.4Z" fill="#636262"/>
<path id="Vector_351" d="M16 12.8004V7.08039C16 6.71039 15.7 6.40039 15.32 6.40039H7.08002C6.71002 6.40039 6.40002 6.70039 6.40002 7.08039V15.3204C6.40002 15.6904 6.70002 16.0004 7.08002 16.0004H15.32C15.69 16.0004 16 15.7004 16 15.3204V12.8004Z" fill="#636262"/>
<path id="Vector_352" d="M58.28 0C57.91 0 57.6 0.31 57.6 0.68V21.72C57.6 22.09 57.9 22.4 58.28 22.4H79.32C79.69 22.4 80 22.1 80 21.72V0.68C80.01 0.31 79.7 0 79.32 0H58.28ZM76.8 6.4V18.81C76.8 19.03 76.62 19.2 76.41 19.2H61.19C60.97 19.2 60.8 19.02 60.8 18.81V3.59C60.8 3.37 60.98 3.2 61.19 3.2H76.41C76.63 3.2 76.8 3.38 76.8 3.59V6.4Z" fill="#636262"/>
<path id="Vector_353" d="M73.6 12.8004V7.08039C73.6 6.71039 73.3 6.40039 72.92 6.40039H64.68C64.31 6.40039 64 6.70039 64 7.08039V15.3204C64 15.6904 64.3 16.0004 64.68 16.0004H72.92C73.29 16.0004 73.6 15.7004 73.6 15.3204V12.8004Z" fill="#636262"/>
<path id="Vector_354" d="M0.68 57.5996C0.31 57.5996 0 57.9096 0 58.2796V79.3196C0 79.6896 0.3 79.9996 0.68 79.9996H21.72C22.09 79.9996 22.4 79.6996 22.4 79.3196V58.2796C22.4 57.9096 22.1 57.5996 21.72 57.5996H0.68ZM19.2 63.9996V76.4096C19.2 76.6296 19.02 76.7996 18.81 76.7996H3.59C3.37 76.7996 3.2 76.6196 3.2 76.4096V61.1896C3.2 60.9696 3.38 60.7996 3.59 60.7996H18.81C19.03 60.7996 19.2 60.9796 19.2 61.1896V63.9996Z" fill="#636262"/>
<path id="Vector_355" d="M16 70.4V64.68C16 64.31 15.7 64 15.32 64H7.08002C6.71002 64 6.40002 64.3 6.40002 64.68V72.92C6.40002 73.29 6.70002 73.6 7.08002 73.6H15.32C15.69 73.6 16 73.3 16 72.92V70.4Z" fill="#636262"/>
</g>
</g>
</g>
</svg>
