<svg width="80" height="30" viewBox="0 0 80 30" fill="none" xmlns="http://www.w3.org/2000/svg">
<g id="Clip path group">
<mask id="mask0_8001_226" style="mask-type:luminance" maskUnits="userSpaceOnUse" x="0" y="0" width="80" height="30">
<g id="clip0_1_16">
<path id="Vector" d="M79.8829 0H0V29.9483H79.8829V0Z" fill="white"/>
</g>
</mask>
<g mask="url(#mask0_8001_226)">
<g id="Group">
<path id="Vector_2" d="M16.8585 8.93607C14.5171 8.87142 11.239 9.00073 8.85852 9.00073V21.1042H12.2667V11.949C12.2667 11.949 15.2975 11.8456 16.3902 11.9749C17.4179 12.0912 17.7951 12.7249 17.8341 14.0438C17.8601 15.5438 17.8341 16.3326 17.8341 21.1042H21.2423C21.2423 21.1042 21.2813 15.6473 21.2423 13.7464C21.1902 10.3714 20.0065 9.01366 16.8585 8.93607Z" fill="white"/>
<path id="Vector_3" d="M32.6243 8.89648C29.2552 8.89648 26.5105 11.6379 26.5105 15.0129C26.5105 18.3879 29.2552 21.1292 32.6243 21.1292C35.9934 21.1292 38.7381 18.3879 38.7381 15.0129C38.7381 11.6379 35.9934 8.89648 32.6243 8.89648ZM32.6243 18.2068C30.8552 18.2068 29.4243 16.7715 29.4243 14.9999C29.4243 13.2284 30.8552 11.793 32.6243 11.793C34.3934 11.793 35.8243 13.2284 35.8243 14.9999C35.8243 16.7844 34.3934 18.2068 32.6243 18.2068Z" fill="white"/>
<path id="Vector_4" d="M70.9463 15.0129C70.9463 11.6379 68.2016 8.89648 64.8324 8.89648C61.4633 8.89648 58.7186 11.6379 58.7186 15.0129C58.7186 16.9913 59.6292 18.6853 61.0471 19.8103C62.0357 20.5861 63.4146 21.1292 65.2617 21.1292C66.1593 21.1292 68.4877 20.8836 70.1658 19.0344L68.7869 17.1982C68.2016 17.7154 66.7316 18.4396 65.5609 18.4396C64.078 18.4396 63.1804 18.1551 62.53 17.5473C62.1268 17.1853 61.8406 16.6292 61.7105 15.9439H70.8552C70.9072 15.6336 70.9463 15.3361 70.9463 15.0129ZM61.7365 13.9008C62.0747 12.4654 63.0894 11.4051 64.8194 11.4051C66.6276 11.4051 67.5772 12.543 67.8894 13.9008H61.7365Z" fill="white"/>
<path id="Vector_5" d="M50.3154 7.77148H47.1284V11.1723H43.8503V14.1465H47.1284V17.6767H50.3154V14.1465H53.5934V11.1723H50.3154V7.77148Z" fill="white"/>
</g>
</g>
</g>
</svg>
