<svg width="60" height="60" viewBox="0 0 60 60" fill="none" xmlns="http://www.w3.org/2000/svg">
<g id="icons8-instagram 1">
<path id="Vector" d="M20 7.5C13.0975 7.5 7.5 13.0975 7.5 20V40C7.5 46.9025 13.0975 52.5 20 52.5H40C46.9025 52.5 52.5 46.9025 52.5 40V20C52.5 13.0975 46.9025 7.5 40 7.5H20ZM45 12.5C46.38 12.5 47.5 13.62 47.5 15C47.5 16.38 46.38 17.5 45 17.5C43.62 17.5 42.5 16.38 42.5 15C42.5 13.62 43.62 12.5 45 12.5ZM30 17.5C36.9025 17.5 42.5 23.0975 42.5 30C42.5 36.9025 36.9025 42.5 30 42.5C23.0975 42.5 17.5 36.9025 17.5 30C17.5 23.0975 23.0975 17.5 30 17.5ZM30 22.5C28.0109 22.5 26.1032 23.2902 24.6967 24.6967C23.2902 26.1032 22.5 28.0109 22.5 30C22.5 31.9891 23.2902 33.8968 24.6967 35.3033C26.1032 36.7098 28.0109 37.5 30 37.5C31.9891 37.5 33.8968 36.7098 35.3033 35.3033C36.7098 33.8968 37.5 31.9891 37.5 30C37.5 28.0109 36.7098 26.1032 35.3033 24.6967C33.8968 23.2902 31.9891 22.5 30 22.5Z" fill="white"/>
</g>
</svg>
